# xmcd
#
# Track frame offsets:
#	150
#	12763
#	26468
#	40935
#	52869
#	65305
#	76621
#	88088
#	101045
#	114114
#	127457
#	138375
#	152925
#	166457
#	177185
#	189461
#	202212
#	214399
#	224238
#	236354
#	246829
#	257992
#	269736
#	282775
#
# Disc length: 3947 seconds
#
# Revision: 0
# Processed by: cddbd v1.5.1PL2 Copyright (c) Steve Scherf et al.
# Submitted via: dBpowerAMP V4.0
#
DISCID=670f6918
DTITLE=varios artistas - I´m A Soul Man - Original Soul Brothers
DYEAR=2005
DGENRE=Soul
TTITLE0=Just Another Day -The Soul Stirrers
TTITLE1=Too Much Lovin´ - The 5 Royales
TTITLE2=Sincerely - The Moonglows
TTITLE3=Hearts Of Stone - The Charms
TTITLE4=Lovey Dovey
TTITLE5=I´m Gonna Take To The Road - The Ravens
TTITLE6=Sixty Minute Man - The Dominoes
TTITLE7=Can´t Do Sixty No More - The Du-Droppers
TTITLE8=Eyesight To The Blind - The Larks
TTITLE9=I´ll Be In The Wilderness - The 5 Blind Boys Of Mississippi
TTITLE10=Hucklebuck With Jimmy - The 5 Keys
TTITLE11=Earth Angel - The Penguins
TTITLE12=No Blow No Show - Bobby Blue Bland
TTITLE13=Rainy Weather Blues - Roy Brown and His Mighty Mighty Men
TTITLE14=Do You Know Him? - Brother Joe May
TTITLE15=They Were Doing The Mambo - Joe Liggins and His Orchestra
TTITLE16=Saving My Love For you - Johnny Ace and The Johny Otis Band
TTITLE17=Ain´t Nothin´ Happening - Little Richard
TTITLE18=No More Doggin´ Around - Rufus Thomas
TTITLE19=The Candle´ Burning Low - Johnny Otis and His Orchestra
TTITLE20=The Bible´s Being Fulfilled Every Day - Reverend Gatemouth Moore
TTITLE21=I´m A Good Rockin´ Daddy - Ray Snead
TTITLE22=The River´s Invitation - Percy Mayfield
TTITLE23=I Got A Woman - Ray Charles
EXTD=Colección Saga Blues Nº 29
EXTT0=
EXTT1=
EXTT2=
EXTT3=
EXTT4=
EXTT5=
EXTT6=
EXTT7=
EXTT8=
EXTT9=
EXTT10=
EXTT11=
EXTT12=
EXTT13=
EXTT14=
EXTT15=
EXTT16=
EXTT17=
EXTT18=
EXTT19=
EXTT20=
EXTT21=
EXTT22=
EXTT23=
PLAYORDER=
